<svg xmlns="http://www.w3.org/2000/svg" xmlns:xlink="http://www.w3.org/1999/xlink" version="1.1" width="256" height="256" viewBox="0 0 256 256" xml:space="preserve">

<defs>
</defs>
<g style="stroke: none; stroke-width: 0; stroke-dasharray: none; stroke-linecap: butt; stroke-linejoin: miter; stroke-miterlimit: 10; fill: none; fill-rule: nonzero; opacity: 1;" transform="translate(1.4065934065934016 1.4065934065934016) scale(2.81 2.81)" >
	<circle cx="25.249000000000002" cy="65.379" r="12.109" style="stroke: none; stroke-width: 1; stroke-dasharray: none; stroke-linecap: butt; stroke-linejoin: miter; stroke-miterlimit: 10; fill: rgb(51,41,41); fill-rule: nonzero; opacity: 1;" transform="  matrix(1 0 0 1 0 0) "/>
	<circle cx="25.249" cy="65.379" r="6.099" style="stroke: none; stroke-width: 1; stroke-dasharray: none; stroke-linecap: butt; stroke-linejoin: miter; stroke-miterlimit: 10; fill: rgb(239,182,90); fill-rule: nonzero; opacity: 1;" transform="  matrix(1 0 0 1 0 0) "/>
	<circle cx="77.889" cy="65.379" r="12.109" style="stroke: none; stroke-width: 1; stroke-dasharray: none; stroke-linecap: butt; stroke-linejoin: miter; stroke-miterlimit: 10; fill: rgb(51,41,41); fill-rule: nonzero; opacity: 1;" transform="  matrix(1 0 0 1 0 0) "/>
	<circle cx="77.88900000000001" cy="65.379" r="6.099" style="stroke: none; stroke-width: 1; stroke-dasharray: none; stroke-linecap: butt; stroke-linejoin: miter; stroke-miterlimit: 10; fill: rgb(239,182,90); fill-rule: nonzero; opacity: 1;" transform="  matrix(1 0 0 1 0 0) "/>
	<path d="M 8.604 63.975 h 57.789 c 0 -6.08 7.663 -12.99 12.99 -12.99 L 61.417 19.476 h 0 c -3.752 0 -6.553 3.455 -5.776 7.126 l 4.872 23.016 c 0.287 1.358 -0.058 2.772 -0.939 3.844 v 0 c -0.867 1.056 -2.162 1.668 -3.528 1.668 H 43.624 c -2.302 0 -4.168 -1.866 -4.168 -4.168 v -5.73 c 0 -2.776 -2.251 -5.027 -5.027 -5.027 h -16.56 c -3.638 0 -6.893 2.262 -8.162 5.672 l -4.77 12.82 C 3.985 61.254 5.876 63.975 8.604 63.975 z" style="stroke: none; stroke-width: 1; stroke-dasharray: none; stroke-linecap: butt; stroke-linejoin: miter; stroke-miterlimit: 10; fill: rgb(215,28,34); fill-rule: nonzero; opacity: 1;" transform=" matrix(1 0 0 1 0 0) " stroke-linecap="round" />
	<path d="M 89.09 57.211 c -1.659 -3.486 -4.81 -6.28 -9.039 -7.311 c -5.484 -1.338 -11.363 1.014 -14.4 5.773 c -2.139 3.35 -2.616 7.134 -1.769 10.552 c 0.179 0.723 1.129 0.899 1.589 0.312 c 5.295 -6.762 14.104 -9.979 22.587 -8.07 C 88.787 58.629 89.411 57.886 89.09 57.211 z" style="stroke: none; stroke-width: 1; stroke-dasharray: none; stroke-linecap: butt; stroke-linejoin: miter; stroke-miterlimit: 10; fill: rgb(193,23,29); fill-rule: nonzero; opacity: 1;" transform=" matrix(1 0 0 1 0 0) " stroke-linecap="round" />
	<path d="M 5.161 12.516 h 24.54 c 2.85 0 5.161 2.311 5.161 5.161 v 22.486 H 5.161 C 2.311 40.164 0 37.853 0 35.002 V 17.677 C 0 14.827 2.311 12.516 5.161 12.516 z" style="stroke: none; stroke-width: 1; stroke-dasharray: none; stroke-linecap: butt; stroke-linejoin: miter; stroke-miterlimit: 10; fill: rgb(255,155,36); fill-rule: nonzero; opacity: 1;" transform=" matrix(1 0 0 1 0 0) " stroke-linecap="round" />
	<path d="M 70.726 20.115 h 0.844 c 1.028 0 1.862 0.834 1.862 1.862 v 8.725 c 0 1.028 -0.834 1.862 -1.862 1.862 h -0.844 c -3.438 0 -6.225 -2.787 -6.225 -6.225 v 0 C 64.501 22.902 67.288 20.115 70.726 20.115 z" style="stroke: none; stroke-width: 1; stroke-dasharray: none; stroke-linecap: butt; stroke-linejoin: miter; stroke-miterlimit: 10; fill: rgb(255,155,36); fill-rule: nonzero; opacity: 1;" transform=" matrix(1 0 0 1 0 0) " stroke-linecap="round" />
	<path d="M 62.498 19.33 c 0 1.464 -1.187 2.652 -2.652 2.652 s -6.167 -1.187 -6.167 -2.652 c 0 -1.464 4.703 -2.652 6.167 -2.652 S 62.498 17.865 62.498 19.33 z" style="stroke: none; stroke-width: 1; stroke-dasharray: none; stroke-linecap: butt; stroke-linejoin: miter; stroke-miterlimit: 10; fill: rgb(255,155,36); fill-rule: nonzero; opacity: 1;" transform=" matrix(1 0 0 1 0 0) " stroke-linecap="round" />
</g>
</svg>